<svg width="42" height="19" viewBox="0 0 42 19" fill="none" xmlns="http://www.w3.org/2000/svg">
<path opacity="0.5" fill-rule="evenodd" clip-rule="evenodd" d="M41.0571 9.40905C41.0571 9.14789 40.9027 8.89742 40.6277 8.71275C40.3527 8.52808 39.9798 8.42434 39.5909 8.42434H5.00843L14.2369 2.22854C14.5122 2.04364 14.6669 1.79286 14.6669 1.53136C14.6669 1.26987 14.5122 1.01909 14.2369 0.834189C13.9616 0.649287 13.5881 0.54541 13.1988 0.54541C12.8094 0.54541 12.436 0.649287 12.1607 0.834189L0.430862 8.71187C0.294319 8.80334 0.185989 8.91201 0.112072 9.03164C0.0381546 9.15127 0.000106812 9.27952 0.000106812 9.40905C0.000106812 9.53857 0.0381546 9.66682 0.112072 9.78645C0.185989 9.90609 0.294319 10.0148 0.430862 10.1062L12.1607 17.9839C12.436 18.1688 12.8094 18.2727 13.1988 18.2727C13.5881 18.2727 13.9616 18.1688 14.2369 17.9839C14.5122 17.799 14.6669 17.5482 14.6669 17.2867C14.6669 17.0252 14.5122 16.7745 14.2369 16.5896L5.00843 10.3938H39.5909C39.9798 10.3938 40.3527 10.29 40.6277 10.1053C40.9027 9.92068 41.0571 9.67021 41.0571 9.40905Z" fill="#EFEFEF"/>
</svg>
