<svg width="42" height="18" viewBox="0 0 42 18" fill="none" xmlns="http://www.w3.org/2000/svg">
<path fill-rule="evenodd" clip-rule="evenodd" d="M0.191895 9.0453C0.191895 9.30646 0.346372 9.55692 0.621343 9.74159C0.896314 9.92626 1.26926 10.03 1.65812 10.03H36.2406L27.0121 16.2258C26.7368 16.4107 26.5822 16.6615 26.5822 16.923C26.5822 17.1845 26.7368 17.4353 27.0121 17.6202C27.2875 17.8051 27.6609 17.9089 28.0502 17.9089C28.4396 17.9089 28.813 17.8051 29.0883 17.6202L40.8182 9.74247C40.9547 9.651 41.063 9.54234 41.137 9.4227C41.2109 9.30307 41.2489 9.17482 41.2489 9.0453C41.2489 8.91577 41.2109 8.78752 41.137 8.66789C41.063 8.54826 40.9547 8.43959 40.8182 8.34812L29.0883 0.47044C28.813 0.285538 28.4396 0.18166 28.0502 0.18166C27.6609 0.181662 27.2875 0.285538 27.0121 0.47044C26.7368 0.655342 26.5822 0.906122 26.5822 1.16761C26.5822 1.4291 26.7368 1.67989 27.0121 1.86479L36.2406 8.06059H1.65812C1.26926 8.06059 0.896314 8.16433 0.621343 8.349C0.346372 8.53367 0.191895 8.78414 0.191895 9.0453Z" fill="#EFEFEF"/>
</svg>
