<svg width="19" height="19" viewBox="0 0 19 19" fill="none" xmlns="http://www.w3.org/2000/svg">
<g clip-path="url(#clip0_174_571)">
<path d="M6.83644 1.27171C6.90335 1.31178 6.96171 1.36464 7.00819 1.42727C7.05467 1.4899 7.08835 1.56107 7.10732 1.63672C7.12629 1.71236 7.13017 1.79101 7.11873 1.86816C7.1073 1.9453 7.08078 2.01944 7.04069 2.08634L4.01731 7.1249H14.9827L11.9581 2.08634C11.8772 1.95123 11.8532 1.7895 11.8915 1.63673C11.9298 1.48395 12.0273 1.35266 12.1624 1.27171C12.2975 1.19077 12.4592 1.16682 12.612 1.20513C12.7648 1.24343 12.8961 1.34085 12.977 1.47597L16.3673 7.1249H18.4062C18.5637 7.1249 18.7147 7.18746 18.8261 7.29881C18.9374 7.41016 19 7.56118 19 7.71865V8.90615C19 9.06362 18.9374 9.21465 18.8261 9.326C18.7147 9.43735 18.5637 9.4999 18.4062 9.4999H0.59375C0.436278 9.4999 0.285255 9.43735 0.173905 9.326C0.0625556 9.21465 0 9.06362 0 8.90615V7.71865C0 7.56118 0.0625556 7.41016 0.173905 7.29881C0.285255 7.18746 0.436278 7.1249 0.59375 7.1249H2.63269L6.02063 1.47597C6.06069 1.40905 6.11355 1.35069 6.17618 1.30421C6.23881 1.25774 6.30998 1.22405 6.38562 1.20508C6.46127 1.18612 6.53992 1.18224 6.61707 1.19367C6.69421 1.2051 6.76835 1.23162 6.83525 1.27171H6.83644ZM2.93075 18.3183L1.11981 10.6874H17.8802L16.0693 18.3183C16.0224 18.5125 15.9115 18.6854 15.7545 18.809C15.5974 18.9327 15.4034 18.9999 15.2036 18.9999H3.79644C3.59639 19.0002 3.40208 18.933 3.24482 18.8094C3.08756 18.6857 2.97651 18.5127 2.92956 18.3183H2.93075Z" fill="url(#paint0_linear_174_571)"/>
</g>
<defs>
<linearGradient id="paint0_linear_174_571" x1="0" y1="9.93165" x2="19" y2="9.93165" gradientUnits="userSpaceOnUse">
<stop stop-color="#DCBE8C"/>
<stop offset="1" stop-color="#D89E54"/>
</linearGradient>
<clipPath id="clip0_174_571">
<rect width="19" height="19" fill="white"/>
</clipPath>
</defs>
</svg>
